<svg width="29" height="37" viewBox="0 0 29 37" fill="none" xmlns="http://www.w3.org/2000/svg">
<path d="M7.43878 10.0141V7.22701C7.43878 3.247 10.5877 0 14.4991 0C18.4105 0 21.5595 3.247 21.5595 7.22701V10.0141H26.4396C26.6631 10.0143 26.8783 10.0981 27.0418 10.2485C27.2053 10.399 27.305 10.6051 27.3207 10.8252L28.9982 35.2125C29.013 35.4429 28.9349 35.6697 28.781 35.8436C28.627 36.0174 28.4097 36.1242 28.1764 36.1406H0.88113C0.64744 36.1406 0.423321 36.049 0.258077 35.8859C0.0928329 35.7228 0 35.5017 0 35.271V35.2125L1.67754 10.8252C1.69257 10.6046 1.79191 10.3979 1.95548 10.2468C2.11905 10.0957 2.33464 10.0116 2.55867 10.0113L7.43878 10.0141ZM10.0878 10.0141H18.9132V7.22701C18.9132 4.66564 16.9363 2.61153 14.4991 2.61153C12.0619 2.61153 10.0878 4.66564 10.0878 7.22701V10.0141ZM2.77048 33.5319H26.2278L24.7931 12.6285H4.20796L2.77048 33.5319Z" fill="white"/>
</svg>
